<svg xmlns="http://www.w3.org/2000/svg" width="60" height="59" viewBox="0 0 60 59" fill="none">
  <rect x="1.36035" y="0.5" width="58" height="58" rx="29" stroke="white"/>
  <path d="M31.9902 36.2207H23.9902C23.4379 36.2207 22.9902 36.6684 22.9902 37.2207C22.9902 37.773 23.4379 38.2207 23.9902 38.2207H31.9902C32.5425 38.2207 32.9902 37.773 32.9902 37.2207C32.9902 36.6684 32.5425 36.2207 31.9902 36.2207Z" fill="white" stroke="#313131" stroke-width="0.5"/>
  <path d="M25.9902 31.9121H23.9902C23.4379 31.9121 22.9902 32.3598 22.9902 32.9121C22.9902 33.4644 23.4379 33.9121 23.9902 33.9121H25.9902C26.5425 33.9121 26.9902 33.4644 26.9902 32.9121C26.9902 32.3598 26.5425 31.9121 25.9902 31.9121Z" fill="white" stroke="#313131" stroke-width="0.5"/>
  <path d="M40.82 43.4414H21.17C20.3293 43.4414 19.523 43.1074 18.9285 42.5129C18.334 41.9184 18 41.1121 18 40.2714V20.6114C18 19.7707 18.334 18.9644 18.9285 18.3699C19.523 17.7754 20.3293 17.4414 21.17 17.4414H31.99C32.1213 17.4414 32.2514 17.4673 32.3727 17.5175C32.494 17.5678 32.6042 17.6414 32.6971 17.7343C32.79 17.8272 32.8636 17.9374 32.9139 18.0587C32.9641 18.18 32.99 18.3101 32.99 18.4414C32.99 18.7066 32.8846 18.961 32.6971 19.1485C32.5096 19.336 32.2552 19.4414 31.99 19.4414H21.17C21.0155 19.4401 20.8623 19.4694 20.7192 19.5276C20.5761 19.5858 20.4459 19.6718 20.3362 19.7805C20.2265 19.8893 20.1394 20.0187 20.08 20.1613C20.0206 20.304 19.99 20.4569 19.99 20.6114V40.2614C19.9926 40.5709 20.1167 40.867 20.3356 41.0858C20.5544 41.3047 20.8505 41.4288 21.16 41.4314H40.82C41.1295 41.4288 41.4256 41.3047 41.6444 41.0858C41.8633 40.867 41.9874 40.5709 41.99 40.2614V29.4414C41.99 29.1762 42.0954 28.9218 42.2829 28.7343C42.4704 28.5468 42.7248 28.4414 42.99 28.4414C43.2552 28.4414 43.5096 28.5468 43.6971 28.7343C43.8846 28.9218 43.99 29.1762 43.99 29.4414V40.2614C43.9913 40.6785 43.9103 41.0918 43.7516 41.4776C43.5929 41.8633 43.3596 42.214 43.0651 42.5094C42.7706 42.8048 42.4207 43.0392 42.0354 43.1992C41.6502 43.3591 41.2371 43.4414 40.82 43.4414Z" fill="white" stroke="#313131" stroke-width="0.5"/>
  <circle cx="41.3203" cy="21" r="6" fill="#39C672"/>
</svg>