<svg xmlns="http://www.w3.org/2000/svg" width="22" height="22" viewBox="0 0 22 22" fill="none">
  <g clip-path="url(#clip0_6160_17795)">
    <path d="M22.0001 10.6562C22.0005 8.62007 21.4175 6.62648 20.3201 4.91146C19.2226 3.19643 17.6567 1.8318 15.8077 0.979154C13.9588 0.126505 11.9042 -0.178455 9.88722 0.100383C7.8703 0.379221 5.97552 1.23018 4.42724 2.5525C2.87895 3.87481 1.74201 5.61312 1.15103 7.56157C0.560044 9.51001 0.539778 11.587 1.09263 13.5466C1.64548 15.5062 2.74829 17.2664 4.27047 18.6187C5.79266 19.971 7.67047 20.8587 9.68157 21.1769V13.7352H6.97682V10.6562H9.68157V8.30833C9.62333 7.76025 9.68635 7.20607 9.86618 6.68508C10.046 6.16407 10.3382 5.689 10.7221 5.29353C11.106 4.89806 11.5722 4.59188 12.0876 4.39667C12.6031 4.20147 13.1551 4.12203 13.7047 4.16398C14.5038 4.17448 15.301 4.24392 16.0899 4.37173V6.99657H14.7475C14.5188 6.96667 14.2864 6.98857 14.0672 7.06066C13.8482 7.13273 13.6482 7.25315 13.4819 7.41299C13.3157 7.57283 13.1875 7.76801 13.1069 7.98408C13.0263 8.20015 12.9953 8.43157 13.0162 8.66124V10.6589H15.9713L15.4986 13.7378H13.0109V21.1835C15.5175 20.7869 17.8003 19.5087 19.4483 17.5787C21.0962 15.6488 22.0011 13.1939 22.0001 10.6562Z" fill="#CFCFCF"/>
  </g>
  <defs>
    <clipPath id="clip0_6160_17795">
      <rect width="21.3077" height="21.3077" fill="white" transform="translate(0.692383)"/>
    </clipPath>
  </defs>
</svg>