<svg width="60" height="59" viewBox="0 0 60 59" fill="none" xmlns="http://www.w3.org/2000/svg">
<rect x="1.02734" y="0.5" width="58" height="58" rx="29" stroke="white"/>
<g clip-path="url(#clip0_5875_9110)">
<path d="M30.334 14C23.716 14 18.334 19.382 18.334 26C18.334 36.354 29.236 45.394 29.702 45.774C29.8801 45.9203 30.1035 46.0002 30.334 46.0002C30.5645 46.0002 30.7878 45.9203 30.966 45.774C31.434 45.394 42.334 36.354 42.334 26C42.334 19.382 36.952 14 30.334 14ZM30.334 43.672C28.042 41.608 20.334 34.06 20.334 26C20.334 20.486 24.82 16 30.334 16C35.848 16 40.334 20.486 40.334 26C40.334 34.046 32.624 41.606 30.334 43.672Z" fill="white" stroke="#313131" stroke-width="0.5"/>
<g clip-path="url(#clip1_5875_9110)">
<rect x="24.334" y="20" width="12" height="12" rx="6" fill="#39C672"/>
<path d="M30.334 20C27.026 20 24.334 22.692 24.334 26C24.334 29.308 27.026 32 30.334 32C33.642 32 36.334 29.308 36.334 26C36.334 22.692 33.642 20 30.334 20ZM30.334 30C28.128 30 26.334 28.206 26.334 26C26.334 23.794 28.128 22 30.334 22C32.54 22 34.334 23.794 34.334 26C34.334 28.206 32.54 30 30.334 30Z" fill="#39C672"/>
</g>
</g>
<defs>
<clipPath id="clip0_5875_9110">
<rect width="32" height="32" fill="white" transform="translate(14.334 14)"/>
</clipPath>
<clipPath id="clip1_5875_9110">
<rect x="24.334" y="20" width="12" height="12" rx="6" fill="white"/>
</clipPath>
</defs>
</svg>
