<svg width="60" height="59" viewBox="0 0 60 59" fill="none" xmlns="http://www.w3.org/2000/svg">
<rect x="0.693359" y="0.5" width="58" height="58" rx="29" stroke="white"/>
<path d="M14.6667 29.9999C14.6663 27.1831 15.4591 24.4231 16.9545 22.036C18.4499 19.6489 20.5873 17.7311 23.122 16.5023C25.6566 15.2736 28.4861 14.7835 31.2864 15.0881C34.0867 15.3928 36.7446 16.4799 38.9558 18.225H36.6741C36.4764 18.2269 36.2875 18.3068 36.1484 18.4472C36.0093 18.5877 35.9313 18.7773 35.9313 18.975C35.9313 19.1726 36.0093 19.3623 36.1484 19.5028C36.2875 19.6432 36.4764 19.7231 36.6741 19.725H40.9166C41.1156 19.725 41.3063 19.646 41.447 19.5053C41.5876 19.3646 41.6667 19.1739 41.6667 18.9749V14.7322C41.6647 14.5346 41.5849 14.3457 41.4444 14.2066C41.304 14.0675 41.1143 13.9895 40.9167 13.9895C40.719 13.9895 40.5293 14.0675 40.3889 14.2066C40.2485 14.3457 40.1686 14.5346 40.1667 14.7322V17.2719C36.8963 14.5741 32.7131 13.2386 28.4845 13.5425C24.2559 13.8463 20.3065 15.7661 17.4554 18.9037C14.6044 22.0413 13.0704 26.156 13.1717 30.3943C13.273 34.6326 15.0018 38.6692 17.9996 41.667C18.1407 41.805 18.3306 41.8817 18.528 41.8806C18.7254 41.8795 18.9144 41.8006 19.054 41.661C19.1936 41.5214 19.2725 41.3324 19.2736 41.135C19.2748 40.9376 19.198 40.7477 19.0601 40.6065C17.6628 39.2169 16.5551 37.5639 15.801 35.7433C15.0468 33.9227 14.6613 31.9706 14.6667 29.9999ZM23.1115 43.4966C22.6838 43.2884 22.2661 43.0602 21.8599 42.8126C21.6901 42.7089 21.4862 42.677 21.2928 42.7238C21.0995 42.7705 20.9327 42.8922 20.829 43.0619C20.7254 43.2317 20.6934 43.4357 20.7402 43.629C20.787 43.8224 20.9086 43.9892 21.0784 44.0928C21.5254 44.3655 21.9852 44.6168 22.4561 44.8457C22.5447 44.8888 22.6409 44.9139 22.7392 44.9198C22.8375 44.9257 22.936 44.9121 23.0291 44.8799C23.1221 44.8477 23.208 44.7975 23.2816 44.7321C23.3553 44.6668 23.4154 44.5875 23.4584 44.4989C23.5014 44.4104 23.5266 44.3142 23.5325 44.2159C23.5384 44.1175 23.5248 44.019 23.4926 43.926C23.4604 43.8329 23.4102 43.7471 23.3448 43.6734C23.2794 43.5998 23.2002 43.5397 23.1116 43.4966H23.1115ZM43.1699 23.4587C43.2129 23.5473 43.2729 23.6267 43.3464 23.6921C43.42 23.7576 43.5058 23.8079 43.5988 23.8402C43.6919 23.8726 43.7904 23.8862 43.8887 23.8805C43.987 23.8747 44.0833 23.8497 44.1719 23.8068C44.2605 23.7638 44.3399 23.7038 44.4053 23.6303C44.4708 23.5567 44.5211 23.4709 44.5534 23.3779C44.5858 23.2848 44.5994 23.1863 44.5937 23.088C44.5879 22.9897 44.5629 22.8934 44.5199 22.8048C44.2917 22.3338 44.0412 21.8739 43.7692 21.4267C43.718 21.3425 43.6508 21.2693 43.5712 21.2111C43.4917 21.1529 43.4016 21.111 43.3058 21.0877C43.1126 21.0406 42.9085 21.0723 42.7385 21.1757C42.5685 21.2791 42.4466 21.4457 42.3995 21.639C42.3525 21.8323 42.3841 22.0364 42.4875 22.2064C42.7346 22.6128 42.9623 23.0307 43.1699 23.4587ZM31.446 44.8949C30.9726 44.9511 30.4935 44.9846 30.0219 44.996C29.8266 45.0035 29.6419 45.0869 29.5072 45.2285C29.3725 45.3701 29.2984 45.5587 29.3006 45.7541C29.3029 45.9495 29.3814 46.1364 29.5194 46.2748C29.6573 46.4132 29.8439 46.4923 30.0393 46.4953C30.0451 46.4953 30.0514 46.4953 30.0572 46.4949C30.5758 46.4828 31.102 46.4457 31.622 46.3843C31.8194 46.3608 31.9994 46.2599 32.1224 46.1038C32.2454 45.9476 32.3014 45.7491 32.2782 45.5517C32.2549 45.3543 32.1542 45.1742 31.9982 45.051C31.8422 44.9278 31.6437 44.8715 31.4463 44.8946L31.446 44.8949ZM27.1776 44.7931C26.7083 44.7146 26.243 44.6137 25.7834 44.4907C25.5912 44.4393 25.3865 44.4664 25.2142 44.566C25.042 44.6656 24.9163 44.8295 24.865 45.0218C24.8136 45.214 24.8407 45.4187 24.9403 45.591C25.0399 45.7632 25.2038 45.8888 25.396 45.9402C25.902 46.0753 26.4142 46.1861 26.9308 46.2724C27.0279 46.2886 27.1273 46.2855 27.2233 46.2633C27.3192 46.2411 27.4099 46.2002 27.49 46.143C27.5702 46.0857 27.6383 46.0133 27.6904 45.9297C27.7426 45.8462 27.7777 45.7532 27.7939 45.656C27.8101 45.5589 27.8071 45.4595 27.7849 45.3635C27.7626 45.2676 27.7218 45.1769 27.6645 45.0968C27.6073 45.0166 27.5348 44.9485 27.4513 44.8964C27.3677 44.8442 27.2747 44.8091 27.1776 44.7929V44.7931ZM45.4302 29.6383C45.2314 29.6335 45.0388 29.7078 44.8947 29.8449C44.7506 29.982 44.6669 30.1708 44.6619 30.3696C44.6498 30.8456 44.6154 31.3209 44.559 31.7938C44.5355 31.9913 44.5913 32.1901 44.7143 32.3464C44.8373 32.5028 45.0173 32.6039 45.2148 32.6276C45.2448 32.6309 45.2748 32.6327 45.3049 32.6327C45.4882 32.6325 45.6651 32.5651 45.8021 32.4433C45.9392 32.3215 46.0269 32.1538 46.0487 31.9718C46.1105 31.4522 46.148 30.9301 46.1612 30.407C46.1637 30.3085 46.1468 30.2105 46.1114 30.1186C46.076 30.0266 46.0228 29.9426 45.955 29.8712C45.8871 29.7998 45.8058 29.7425 45.7158 29.7026C45.6257 29.6626 45.5287 29.6408 45.4302 29.6383ZM43.1282 38.217C42.9636 38.1054 42.7614 38.0637 42.5661 38.101C42.3708 38.1383 42.1982 38.2515 42.0863 38.4159C41.8187 38.8096 41.5326 39.1905 41.229 39.5573C41.1647 39.633 41.116 39.7206 41.0859 39.8152C41.0557 39.9098 41.0446 40.0095 41.0533 40.1084C41.062 40.2073 41.0902 40.3035 41.1363 40.3914C41.1825 40.4793 41.2456 40.5572 41.3221 40.6205C41.3986 40.6838 41.4869 40.7313 41.5818 40.7603C41.6768 40.7892 41.7766 40.799 41.8754 40.789C41.9742 40.7791 42.07 40.7496 42.1573 40.7023C42.2446 40.655 42.3217 40.5909 42.384 40.5136C42.718 40.1104 43.0327 39.6916 43.327 39.2586C43.3823 39.1771 43.4211 39.0856 43.441 38.9892C43.461 38.8927 43.4617 38.7933 43.4433 38.6966C43.4248 38.5999 43.3875 38.5078 43.3334 38.4255C43.2794 38.3432 43.2096 38.2724 43.1282 38.217ZM44.1616 26.1306C44.2839 26.5904 44.3842 27.0558 44.4623 27.5251C44.4914 27.7002 44.5815 27.8593 44.7168 27.9741C44.8521 28.089 45.0238 28.1522 45.2013 28.1524C45.2426 28.1523 45.2839 28.1489 45.3247 28.1421C45.4219 28.126 45.5149 28.0909 45.5985 28.0388C45.6821 27.9868 45.7547 27.9187 45.812 27.8386C45.8693 27.7585 45.9102 27.6678 45.9325 27.5719C45.9548 27.4759 45.9579 27.3765 45.9417 27.2793C45.856 26.7628 45.7457 26.2506 45.6113 25.7446C45.5601 25.5523 45.4346 25.3883 45.2625 25.2886C45.0904 25.1889 44.8857 25.1616 44.6935 25.2128C44.5013 25.264 44.3373 25.3895 44.2376 25.5616C44.1378 25.7337 44.1106 25.9384 44.1618 26.1306H44.1616ZM39.2112 41.5726C38.8445 41.8759 38.4636 42.1617 38.0698 42.4288C37.9882 42.4841 37.9184 42.5548 37.8643 42.6371C37.8101 42.7193 37.7727 42.8114 37.7541 42.9082C37.7355 43.0049 37.7362 43.1043 37.756 43.2007C37.7759 43.2972 37.8146 43.3888 37.8698 43.4703C37.9251 43.5518 37.9959 43.6217 38.0781 43.6758C38.1603 43.73 38.2525 43.7674 38.3492 43.786C38.4459 43.8045 38.5453 43.8039 38.6418 43.784C38.7382 43.7642 38.8298 43.7255 38.9113 43.6702C39.3445 43.3765 39.7635 43.0625 40.167 42.7291C40.3204 42.6024 40.4171 42.4199 40.4359 42.2218C40.4548 42.0237 40.3941 41.8263 40.2674 41.6729C40.1406 41.5196 39.9581 41.4229 39.7601 41.404C39.562 41.3852 39.3646 41.4459 39.2112 41.5726ZM44.8951 34.0931C44.7056 34.0329 44.5 34.0504 44.3234 34.1416C44.1468 34.2329 44.0135 34.3905 43.9529 34.5798C43.8082 35.0329 43.6418 35.4789 43.4545 35.9161C43.4136 36.0069 43.3912 36.105 43.3886 36.2046C43.386 36.3042 43.4033 36.4033 43.4394 36.4961C43.4756 36.5889 43.5298 36.6736 43.5991 36.7452C43.6683 36.8169 43.7511 36.874 43.8427 36.9132C43.9342 36.9525 44.0327 36.9731 44.1323 36.9739C44.2319 36.9747 44.3307 36.9557 44.4228 36.9179C44.515 36.88 44.5987 36.8243 44.669 36.7537C44.7394 36.6832 44.795 36.5994 44.8326 36.5072C45.0393 36.0257 45.2225 35.5346 45.3816 35.0354C45.4115 34.9416 45.4227 34.8428 45.4145 34.7446C45.4063 34.6465 45.3788 34.5509 45.3336 34.4634C45.2884 34.3759 45.2265 34.2982 45.1512 34.2346C45.076 34.1711 44.989 34.123 44.8951 34.0931ZM35.5685 43.794C35.1312 43.9811 34.6851 44.1472 34.2319 44.2917C34.1381 44.3216 34.051 44.3697 33.9758 44.4332C33.9006 44.4968 33.8386 44.5745 33.7934 44.662C33.7482 44.7495 33.7207 44.845 33.7124 44.9432C33.7041 45.0413 33.7153 45.1401 33.7452 45.2339C33.7751 45.3278 33.8232 45.4148 33.8867 45.49C33.9503 45.5652 34.028 45.6272 34.1155 45.6724C34.203 45.7176 34.2986 45.7451 34.3967 45.7534C34.4948 45.7617 34.5936 45.7505 34.6874 45.7206C35.1864 45.5617 35.6774 45.379 36.1589 45.1732C36.3418 45.0949 36.4861 44.9471 36.56 44.7624C36.6339 44.5777 36.6315 44.3712 36.5532 44.1883C36.4748 44.0054 36.3271 43.8611 36.1424 43.7872C35.9577 43.7132 35.7511 43.7157 35.5683 43.794H35.5685Z" fill="white"/>
<path d="M23.3242 28.4679C23.3242 27.2387 22.516 26.2538 21.2651 25.9585C20.5778 25.7957 19.8557 25.8707 19.2166 26.1712C18.5775 26.4717 18.0592 26.9799 17.7461 27.613C17.7014 27.7012 17.6746 27.7973 17.6672 27.8959C17.6597 27.9944 17.6719 28.0935 17.7029 28.1874C17.7339 28.2813 17.7831 28.3681 17.8478 28.4429C17.9124 28.5176 17.9912 28.5789 18.0797 28.6231C18.1681 28.6673 18.2644 28.6936 18.363 28.7005C18.4616 28.7073 18.5606 28.6947 18.6543 28.6631C18.748 28.6316 18.8345 28.5819 18.909 28.5168C18.9834 28.4517 19.0442 28.3726 19.0879 28.2839C19.248 27.9516 19.5174 27.6843 19.851 27.5267C20.1845 27.3692 20.5621 27.3309 20.9205 27.4184C21.1325 27.4683 21.8242 27.6921 21.8242 28.4679C21.8242 29.2501 20.9208 29.8535 19.9643 30.4923C18.8872 31.2112 17.667 32.0261 17.667 33.3752C17.667 33.5741 17.746 33.7648 17.8867 33.9055C18.0273 34.0461 18.2181 34.1252 18.417 34.1252H22.5742C22.7719 34.1233 22.9608 34.0434 23.0998 33.903C23.2389 33.7625 23.317 33.5729 23.317 33.3752C23.317 33.1775 23.2389 32.9879 23.0998 32.8474C22.9608 32.707 22.7719 32.6271 22.5742 32.6252H19.6028C19.917 32.3275 20.3612 32.0309 20.797 31.7397C21.9818 30.9487 23.3242 30.0522 23.3242 28.4679ZM30.417 30.9376C30.417 30.7387 30.338 30.548 30.1973 30.4073C30.0566 30.2667 29.8659 30.1877 29.667 30.1877H29.0576V26.2033C29.0575 26.048 29.0093 25.8965 28.9195 25.7697C28.8297 25.643 28.7027 25.5473 28.5562 25.4958C28.4097 25.4443 28.2507 25.4395 28.1014 25.4822C27.952 25.5249 27.8196 25.6129 27.7224 25.734L23.9255 30.4686C23.8372 30.5789 23.7818 30.7119 23.7658 30.8523C23.7497 30.9927 23.7737 31.1347 23.8348 31.2621C23.896 31.3895 23.9918 31.4971 24.1114 31.5723C24.231 31.6476 24.3694 31.6876 24.5107 31.6877H27.5576V33.797C27.5566 33.8961 27.5753 33.9944 27.6126 34.0863C27.6498 34.1781 27.7049 34.2617 27.7747 34.3321C27.8444 34.4025 27.9274 34.4584 28.0189 34.4965C28.1104 34.5347 28.2085 34.5543 28.3076 34.5543C28.4067 34.5543 28.5048 34.5347 28.5963 34.4965C28.6878 34.4584 28.7708 34.4025 28.8405 34.3321C28.9102 34.2617 28.9653 34.1781 29.0026 34.0863C29.0398 33.9944 29.0585 33.8961 29.0576 33.797V31.6877H29.667C29.8659 31.6877 30.0567 31.6086 30.1973 31.468C30.338 31.3273 30.417 31.1366 30.417 30.9376ZM27.5576 30.1877H26.074L27.5576 28.3372V30.1877ZM34.2556 25.0461C34.159 25.0266 34.0595 25.0263 33.9628 25.0453C33.8661 25.0644 33.7741 25.1023 33.6921 25.1569C33.6101 25.2116 33.5397 25.2819 33.485 25.3638C33.4302 25.4458 33.3921 25.5377 33.373 25.6344L31.6855 34.0719C31.6465 34.2669 31.6865 34.4695 31.7968 34.635C31.9071 34.8005 32.0786 34.9154 32.2737 34.9544C32.3223 34.9641 32.3717 34.969 32.4213 34.9691C32.5946 34.9689 32.7624 34.9087 32.8963 34.7989C33.0302 34.689 33.1219 34.5361 33.156 34.3663L34.8435 25.9288C34.8628 25.8322 34.863 25.7328 34.844 25.6362C34.8249 25.5395 34.787 25.4476 34.7324 25.3656C34.6778 25.2836 34.6076 25.2132 34.5258 25.1584C34.444 25.1036 34.3521 25.0654 34.2556 25.0461ZM38.1041 34.1255C38.2522 34.1254 38.397 34.0816 38.5202 33.9994C38.6435 33.9172 38.7396 33.8004 38.7966 33.6637L41.6091 26.9137C41.6567 26.7998 41.6754 26.6758 41.6635 26.5529C41.6516 26.43 41.6096 26.3119 41.5411 26.2091C41.4726 26.1064 41.3798 26.0221 41.2709 25.9638C41.1621 25.9056 41.0405 25.8751 40.917 25.8751H37.1201C36.9224 25.877 36.7335 25.9569 36.5945 26.0974C36.4554 26.2378 36.3773 26.4275 36.3773 26.6251C36.3773 26.8228 36.4554 27.0125 36.5945 27.1529C36.7335 27.2933 36.9224 27.3732 37.1201 27.3751H39.792L37.4123 33.0869C37.365 33.2008 37.3465 33.3247 37.3584 33.4475C37.3704 33.5704 37.4124 33.6884 37.4808 33.7911C37.5492 33.8938 37.6418 33.9781 37.7506 34.0365C37.8593 34.0948 37.9807 34.1255 38.1041 34.1258V34.1255Z" fill="#39C672"/>
</svg>
