<svg xmlns="http://www.w3.org/2000/svg" width="26" height="20" viewBox="0 0 26 20" fill="none">
  <path d="M25.2742 3.41797C25.0339 2.11218 23.8887 1.16125 22.5597 0.86438C20.571 0.449219 16.8903 0.152344 12.9081 0.152344C8.92822 0.152344 5.18869 0.449219 3.19757 0.86438C1.87094 1.16125 0.723401 2.05188 0.483052 3.41797C0.240348 4.90234 0 6.98047 0 9.65234C0 12.3242 0.240348 14.4023 0.541961 15.8867C0.784665 17.1925 1.92985 18.1434 3.25648 18.4403C5.36777 18.8555 8.98713 19.1523 12.9694 19.1523C16.9516 19.1523 20.571 18.8555 22.6823 18.4403C24.0089 18.1434 25.1541 17.2528 25.3968 15.8867C25.6371 14.4023 25.9387 12.2639 26 9.65234C25.8775 6.98047 25.5759 4.90234 25.2742 3.41797ZM9.65162 13.8086V5.49609L17.0105 9.65234L9.65162 13.8086Z" fill="#CFCFCF"/>
</svg>