<svg xmlns="http://www.w3.org/2000/svg" width="54" height="20" viewBox="0 0 54 20" fill="none">
  <path d="M13.2855 1.16568C13.6653 1.16568 14.0365 1.30079 14.3991 1.57101C14.7789 1.84123 14.9688 2.20434 14.9688 2.66034C14.9688 2.98123 14.848 3.30212 14.6063 3.62301L4.68747 16.087L4.3767 15.9857H13.0265C13.4754 15.9857 13.8466 16.1208 14.1401 16.391C14.4509 16.6443 14.6063 16.9906 14.6063 17.4297C14.6063 17.8519 14.4509 18.2066 14.1401 18.4937C13.8466 18.7639 13.4754 18.899 13.0265 18.899H1.65745C1.20856 18.899 0.820092 18.747 0.492055 18.443C0.164018 18.1221 0 17.7759 0 17.4043C0 17.0835 0.120856 16.7626 0.362567 16.4417L10.3073 3.92701L10.5403 4.07901H2.69335C2.24446 4.07901 1.86463 3.9439 1.55386 3.67368C1.26035 3.40345 1.1136 3.04879 1.1136 2.60968C1.1136 2.17057 1.26035 1.82434 1.55386 1.57101C1.86463 1.30079 2.24446 1.16568 2.69335 1.16568H13.2855Z" fill="#CFCFCF"/>
  <path d="M28.9131 5.09234C29.362 5.09234 29.7332 5.2359 30.0267 5.52301C30.3202 5.81012 30.4669 6.18168 30.4669 6.63768V17.3537C30.4669 17.7928 30.3202 18.1643 30.0267 18.4683C29.7332 18.7555 29.362 18.899 28.9131 18.899C28.4642 18.899 28.093 18.7555 27.7995 18.4683C27.506 18.1643 27.3592 17.7928 27.3592 17.3537V16.1123L27.929 16.3403C27.929 16.5599 27.8081 16.8301 27.5664 17.151C27.3247 17.455 26.9967 17.759 26.5823 18.063C26.1679 18.367 25.6759 18.6288 25.1061 18.8483C24.5537 19.051 23.9494 19.1523 23.2933 19.1523C22.102 19.1523 21.0229 18.8568 20.0561 18.2657C19.0893 17.6577 18.321 16.8301 17.7512 15.783C17.1987 14.719 16.9225 13.503 16.9225 12.135C16.9225 10.7501 17.1987 9.53412 17.7512 8.48701C18.321 7.42301 19.0806 6.59545 20.0302 6.00434C20.9798 5.39634 22.0329 5.09234 23.1897 5.09234C23.9321 5.09234 24.6141 5.20212 25.2356 5.42168C25.8572 5.64123 26.3924 5.9199 26.8413 6.25768C27.3074 6.59545 27.6614 6.94168 27.9031 7.29634C28.1621 7.63412 28.2915 7.92123 28.2915 8.15768L27.3592 8.48701V6.63768C27.3592 6.19857 27.506 5.83545 27.7995 5.54834C28.093 5.24434 28.4642 5.09234 28.9131 5.09234ZM23.6818 16.3657C24.4414 16.3657 25.1061 16.1799 25.6759 15.8083C26.2456 15.4368 26.6859 14.9301 26.9967 14.2883C27.3247 13.6466 27.4887 12.9288 27.4887 12.135C27.4887 11.3243 27.3247 10.5981 26.9967 9.95634C26.6859 9.31457 26.2456 8.8079 25.6759 8.43634C25.1061 8.06479 24.4414 7.87901 23.6818 7.87901C22.9394 7.87901 22.2833 8.06479 21.7135 8.43634C21.1438 8.8079 20.6949 9.31457 20.3669 9.95634C20.0561 10.5981 19.9007 11.3243 19.9007 12.135C19.9007 12.9288 20.0561 13.6466 20.3669 14.2883C20.6949 14.9301 21.1438 15.4368 21.7135 15.8083C22.2833 16.1799 22.9394 16.3657 23.6818 16.3657Z" fill="#CFCFCF"/>
  <path d="M37.1985 17.3537C37.1985 17.7928 37.0431 18.1643 36.7323 18.4683C36.4388 18.7555 36.0676 18.899 35.6188 18.899C35.1871 18.899 34.8246 18.7555 34.5311 18.4683C34.2375 18.1643 34.0908 17.7928 34.0908 17.3537V1.69768C34.0908 1.25857 34.2375 0.895454 34.5311 0.608342C34.8418 0.304343 35.2217 0.152344 35.6705 0.152344C36.1194 0.152344 36.482 0.304343 36.7582 0.608342C37.0518 0.895454 37.1985 1.25857 37.1985 1.69768V17.3537Z" fill="#CFCFCF"/>
  <path d="M54 12.135C54 13.5199 53.6806 14.7443 53.0418 15.8083C52.4202 16.8555 51.5743 17.6746 50.5038 18.2657C49.4506 18.8568 48.268 19.1523 46.9558 19.1523C45.6437 19.1523 44.4524 18.8568 43.382 18.2657C42.3288 17.6746 41.4828 16.8555 40.844 15.8083C40.2225 14.7443 39.9117 13.5199 39.9117 12.135C39.9117 10.7501 40.2225 9.53412 40.844 8.48701C41.4828 7.42301 42.3288 6.59545 43.382 6.00434C44.4524 5.39634 45.6437 5.09234 46.9558 5.09234C48.268 5.09234 49.4506 5.39634 50.5038 6.00434C51.5743 6.59545 52.4202 7.42301 53.0418 8.48701C53.6806 9.53412 54 10.7501 54 12.135ZM50.8923 12.135C50.8923 11.2737 50.711 10.5306 50.3484 9.90568C50.0031 9.2639 49.5283 8.76568 48.9241 8.41101C48.3371 8.05634 47.681 7.87901 46.9558 7.87901C46.2307 7.87901 45.566 8.05634 44.9617 8.41101C44.3747 8.76568 43.8999 9.2639 43.5374 9.90568C43.1921 10.5306 43.0194 11.2737 43.0194 12.135C43.0194 12.9795 43.1921 13.7226 43.5374 14.3643C43.8999 14.9892 44.3747 15.479 44.9617 15.8337C45.566 16.1883 46.2307 16.3657 46.9558 16.3657C47.681 16.3657 48.3371 16.1883 48.9241 15.8337C49.5283 15.479 50.0031 14.9892 50.3484 14.3643C50.711 13.7226 50.8923 12.9795 50.8923 12.135Z" fill="#CFCFCF"/>
</svg>