<svg xmlns="http://www.w3.org/2000/svg" width="77" height="94" viewBox="0 0 77 94" fill="none">
  <path
    d="M13.5772 13.8024L36.1316 2.91406L55.575 31.2237L54.7973 43.9786L44.044 47.2763L73.463 79.599L68.0189 89.0874C68.0189 89.0874 40.1224 74.3717 23.1872 65.3129L17.9326 90.6428L3 87.843L9.26634 43.9786L13.5772 13.8024Z"
    fill="white"
  />
  <path
    d="M13.5772 13.8024L36.1316 2.91406M13.5772 13.8024L44.044 47.2763M13.5772 13.8024L9.26634 43.9786M13.5772 13.8024L55.575 31.2237M36.1316 2.91406L55.575 31.2237M36.1316 2.91406L44.044 47.2763M36.1316 2.91406L25.766 52.8815M55.575 31.2237L54.7973 43.9786L44.044 47.2763M44.044 47.2763L73.463 79.599L68.0188 89.0874C68.0188 89.0874 9.79849 58.3755 10.5141 58.3755C11.2298 58.3755 25.766 52.8815 25.766 52.8815M44.044 47.2763L25.766 52.8815M9.26634 43.9786L3 87.843L17.9326 90.6428L25.766 52.8815M9.26634 43.9786L25.766 52.8815"
    stroke="white"
    stroke-width="4.29379"
  />
  <path
    d="M13.5772 13.8024L36.1316 2.91406M13.5772 13.8024L44.044 47.2763M13.5772 13.8024L9.26634 43.9786M13.5772 13.8024L55.575 31.2237M36.1316 2.91406L55.575 31.2237M36.1316 2.91406L44.044 47.2763M36.1316 2.91406L25.766 52.8815M55.575 31.2237L54.7973 43.9786L44.044 47.2763M44.044 47.2763L73.463 79.599L68.0188 89.0874C68.0188 89.0874 8.72505 58.3755 8.13307 58.289C7.54109 58.2025 25.766 52.8815 25.766 52.8815M44.044 47.2763L25.766 52.8815M9.26634 43.9786L3 87.843L17.9326 90.6428L25.766 52.8815M9.26634 43.9786L25.766 52.8815"
    stroke="#0382D8"
    stroke-width="1.78908"
  />
</svg>