<svg xmlns="http://www.w3.org/2000/svg" width="94" height="85" viewBox="0 0 94 85" fill="none">
  <path
    d="M2.5127 58.1026V2.53125H21.179L36.1405 49.8381H57.9415L74.1854 2.53125H90.9993V58.1026L46.8273 82.4685L2.5127 58.1026Z"
    fill="white"
  />
  <path
    d="M2.5127 58.1026V2.53125H21.179M2.5127 58.1026L46.8273 82.4684M2.5127 58.1026L21.179 35.0191M46.8273 82.4684L90.9993 58.1026M46.8273 82.4684L21.179 49.8381M46.8273 82.4684L74.1854 49.8381M46.8273 82.4684C46.8273 79.5046 39.7027 59.48 36.1405 49.8381M46.8273 82.4684L57.9415 49.8381M90.9993 58.1026V2.53125H74.1854M90.9993 58.1026L74.1854 37.1565M74.1854 2.53125V37.1565M74.1854 2.53125L57.9415 49.8381M74.1854 49.8381V37.1565M74.1854 49.8381H57.9415M21.179 49.8381V35.0191M21.179 49.8381H36.1405M21.179 2.53125V35.0191M21.179 2.53125L36.1405 49.8381M21.179 35.0191L36.1405 49.8381M74.1854 37.1565L57.9415 49.8381M36.1405 49.8381H57.9415"
    stroke="white"
    stroke-width="4.09934"
  />
  <path
    d="M2.5127 58.1026V2.53125H21.179M2.5127 58.1026L46.8273 82.4684M2.5127 58.1026L21.179 35.0191M46.8273 82.4684L90.9993 58.1026M46.8273 82.4684L21.179 49.8381M46.8273 82.4684L74.1854 49.8381M46.8273 82.4684C46.8273 79.5046 39.7027 59.48 36.1405 49.8381M46.8273 82.4684L57.9415 49.8381M90.9993 58.1026V2.53125H74.1854M90.9993 58.1026L74.1854 37.1565M74.1854 2.53125V37.1565M74.1854 2.53125L57.9415 49.8381M74.1854 49.8381V37.1565M74.1854 49.8381H57.9415M21.179 49.8381V35.0191M21.179 49.8381H36.1405M21.179 2.53125V35.0191M21.179 2.53125L36.1405 49.8381M21.179 35.0191L36.1405 49.8381M74.1854 37.1565L57.9415 49.8381M36.1405 49.8381H57.9415"
    stroke="#84775F"
    stroke-width="1.70806"
  />
</svg>