<svg xmlns="http://www.w3.org/2000/svg" width="28" height="23" viewBox="0 0 28 23" fill="none">
  <g clip-path="url(#clip0_5691_87491)">
    <path d="M24.4557 15.4877L24.5142 15.4536L24.5334 15.3887L25.2867 12.8395L27.0566 11.6647V15.9646L18.6774 20.6422V18.8572L24.4557 15.4877Z" fill="#B0CCC2" stroke="white" stroke-width="0.341204"/>
    <path d="M0.980172 10.8115V9.10466L18.3475 18.8385V20.6983L0.980172 10.8115Z" fill="#D5E5E0" stroke="white" stroke-width="0.341204"/>
    <path d="M6.98115 5.29175L7.60969 2.69111L25.0257 12.7088L24.2659 15.1279L6.98115 5.29175Z" fill="#D5E5E0" stroke="white" stroke-width="0.341204"/>
    <path d="M9.46324 16.2687L0.408203 11.1507V8.59164L6.48689 5.1405L7.19948 2.21651L9.46324 0.914551L18.5183 6.03261L27.5733 11.1507V16.2687L18.5183 21.3868L9.46324 16.2687Z" stroke="white" stroke-width="0.682408"/>
    <path d="M18.3563 5.84717L15.8165 7.18574L15.4292 10.029L9.24023 13.5416V15.8833" stroke="white" stroke-width="0.682408"/>
    <path d="M1.51822 11.686L0.835938 14.3124" stroke="white" stroke-width="0.682408"/>
    <path d="M16.8678 20.1025L16.1855 22.9502" stroke="white" stroke-width="0.682408"/>
    <path d="M26.4189 16.9087L27.1012 18.7732" stroke="white" stroke-width="0.682408"/>
  </g>
  <defs>
    <clipPath id="clip0_5691_87491">
      <rect width="27.9525" height="22.5805" fill="white" transform="translate(0.0146484 0.461426)"/>
    </clipPath>
  </defs>
</svg>