<svg width="31" height="30" viewBox="0 0 31 30" fill="none" xmlns="http://www.w3.org/2000/svg">
<g clip-path="url(#clip0_5691_85202)">
<path d="M29.8574 29H26.8574V12.5C26.8574 12.3674 26.8047 12.2402 26.711 12.1464C26.6172 12.0527 26.49 12 26.3574 12H19.3574V0.5C19.3574 0.367392 19.3047 0.240215 19.211 0.146447C19.1172 0.0526784 18.99 0 18.8574 0L5.85742 0C5.72481 0 5.59764 0.0526784 5.50387 0.146447C5.4101 0.240215 5.35742 0.367392 5.35742 0.5V29H0.857422C0.724814 29 0.597637 29.0527 0.503868 29.1464C0.4101 29.2402 0.357422 29.3674 0.357422 29.5C0.357422 29.6326 0.4101 29.7598 0.503868 29.8536C0.597637 29.9473 0.724814 30 0.857422 30H29.8574C29.99 30 30.1172 29.9473 30.211 29.8536C30.3047 29.7598 30.3574 29.6326 30.3574 29.5C30.3574 29.3674 30.3047 29.2402 30.211 29.1464C30.1172 29.0527 29.99 29 29.8574 29ZM10.8574 29H8.85742V24.5C8.85742 24.3674 8.9101 24.2402 9.00387 24.1464C9.09764 24.0527 9.22481 24 9.35742 24H10.3574C10.49 24 10.6172 24.0527 10.711 24.1464C10.8047 24.2402 10.8574 24.3674 10.8574 24.5V29ZM12.8574 12.5V29H11.8574V24.5C11.8574 23.6716 11.1859 23 10.3574 23H9.35742C8.52898 23 7.85742 23.6716 7.85742 24.5V29H6.35742V1H18.3574V12H13.3574C13.2248 12 13.0976 12.0527 13.0039 12.1464C12.9101 12.2402 12.8574 12.3674 12.8574 12.5ZM25.8574 29H13.8574V13H25.8574V29Z" fill="#015121"/>
<path d="M16.3574 7H13.3574C13.2248 7 13.0976 7.05268 13.0039 7.14645C12.9101 7.24021 12.8574 7.36739 12.8574 7.5V10.5C12.8574 10.6326 12.9101 10.7598 13.0039 10.8536C13.0976 10.9473 13.2248 11 13.3574 11H16.3574C16.49 11 16.6172 10.9473 16.711 10.8536C16.8047 10.7598 16.8574 10.6326 16.8574 10.5V7.5C16.8574 7.36739 16.8047 7.24021 16.711 7.14645C16.6172 7.05268 16.49 7 16.3574 7ZM15.8574 10H13.8574V8H15.8574V10ZM16.3574 2H13.3574C13.2248 2 13.0976 2.05268 13.0039 2.14645C12.9101 2.24021 12.8574 2.36739 12.8574 2.5V5.5C12.8574 5.63261 12.9101 5.75979 13.0039 5.85355C13.0976 5.94732 13.2248 6 13.3574 6H16.3574C16.49 6 16.6172 5.94732 16.711 5.85355C16.8047 5.75979 16.8574 5.63261 16.8574 5.5V2.5C16.8574 2.36739 16.8047 2.24021 16.711 2.14645C16.6172 2.05268 16.49 2 16.3574 2ZM15.8574 5H13.8574V3H15.8574V5ZM11.3574 7H8.35742C8.22481 7 8.09764 7.05268 8.00387 7.14645C7.9101 7.24021 7.85742 7.36739 7.85742 7.5V10.5C7.85742 10.6326 7.9101 10.7598 8.00387 10.8536C8.09764 10.9473 8.22481 11 8.35742 11H11.3574C11.49 11 11.6172 10.9473 11.711 10.8536C11.8047 10.7598 11.8574 10.6326 11.8574 10.5V7.5C11.8574 7.36739 11.8047 7.24021 11.711 7.14645C11.6172 7.05268 11.49 7 11.3574 7ZM10.8574 10H8.85742V8H10.8574V10ZM11.3574 2H8.35742C8.22481 2 8.09764 2.05268 8.00387 2.14645C7.9101 2.24021 7.85742 2.36739 7.85742 2.5V5.5C7.85742 5.63261 7.9101 5.75979 8.00387 5.85355C8.09764 5.94732 8.22481 6 8.35742 6H11.3574C11.49 6 11.6172 5.94732 11.711 5.85355C11.8047 5.75979 11.8574 5.63261 11.8574 5.5V2.5C11.8574 2.36739 11.8047 2.24021 11.711 2.14645C11.6172 2.05268 11.49 2 11.3574 2ZM10.8574 5H8.85742V3H10.8574V5ZM11.3574 12H8.35742C8.22481 12 8.09764 12.0527 8.00387 12.1464C7.9101 12.2402 7.85742 12.3674 7.85742 12.5V15.5C7.85742 15.6326 7.9101 15.7598 8.00387 15.8536C8.09764 15.9473 8.22481 16 8.35742 16H11.3574C11.49 16 11.6172 15.9473 11.711 15.8536C11.8047 15.7598 11.8574 15.6326 11.8574 15.5V12.5C11.8574 12.3674 11.8047 12.2402 11.711 12.1464C11.6172 12.0527 11.49 12 11.3574 12ZM10.8574 15H8.85742V13H10.8574V15ZM11.3574 17H8.35742C8.22481 17 8.09764 17.0527 8.00387 17.1464C7.9101 17.2402 7.85742 17.3674 7.85742 17.5V20.5C7.85742 20.6326 7.9101 20.7598 8.00387 20.8536C8.09764 20.9473 8.22481 21 8.35742 21H11.3574C11.49 21 11.6172 20.9473 11.711 20.8536C11.8047 20.7598 11.8574 20.6326 11.8574 20.5V17.5C11.8574 17.3674 11.8047 17.2402 11.711 17.1464C11.6172 17.0527 11.49 17 11.3574 17ZM10.8574 20H8.85742V18H10.8574V20ZM20.8574 23H23.8574C23.99 23 24.1172 22.9473 24.211 22.8536C24.3047 22.7598 24.3574 22.6326 24.3574 22.5V19.5C24.3574 19.3674 24.3047 19.2402 24.211 19.1464C24.1172 19.0527 23.99 19 23.8574 19H20.8574C20.7248 19 20.5976 19.0527 20.5039 19.1464C20.4101 19.2402 20.3574 19.3674 20.3574 19.5V22.5C20.3574 22.6326 20.4101 22.7598 20.5039 22.8536C20.5976 22.9473 20.7248 23 20.8574 23ZM20.8574 18H23.8574C23.99 18 24.1172 17.9473 24.211 17.8536C24.3047 17.7598 24.3574 17.6326 24.3574 17.5V14.5C24.3574 14.3674 24.3047 14.2402 24.211 14.1464C24.1172 14.0527 23.99 14 23.8574 14H20.8574C20.7248 14 20.5976 14.0527 20.5039 14.1464C20.4101 14.2402 20.3574 14.3674 20.3574 14.5V17.5C20.3574 17.6326 20.4101 17.7598 20.5039 17.8536C20.5976 17.9473 20.7248 18 20.8574 18ZM20.8574 28H23.8574C23.99 28 24.1172 27.9473 24.211 27.8536C24.3047 27.7598 24.3574 27.6326 24.3574 27.5V24.5C24.3574 24.3674 24.3047 24.2402 24.211 24.1464C24.1172 24.0527 23.99 24 23.8574 24H20.8574C20.7248 24 20.5976 24.0527 20.5039 24.1464C20.4101 24.2402 20.3574 24.3674 20.3574 24.5V27.5C20.3574 27.6326 20.4101 27.7598 20.5039 27.8536C20.5976 27.9473 20.7248 28 20.8574 28ZM15.8574 23H18.8574C18.99 23 19.1172 22.9473 19.211 22.8536C19.3047 22.7598 19.3574 22.6326 19.3574 22.5V19.5C19.3574 19.3674 19.3047 19.2402 19.211 19.1464C19.1172 19.0527 18.99 19 18.8574 19H15.8574C15.7248 19 15.5976 19.0527 15.5039 19.1464C15.4101 19.2402 15.3574 19.3674 15.3574 19.5V22.5C15.3574 22.6326 15.4101 22.7598 15.5039 22.8536C15.5976 22.9473 15.7248 23 15.8574 23ZM15.8574 18H18.8574C18.99 18 19.1172 17.9473 19.211 17.8536C19.3047 17.7598 19.3574 17.6326 19.3574 17.5V14.5C19.3574 14.3674 19.3047 14.2402 19.211 14.1464C19.1172 14.0527 18.99 14 18.8574 14H15.8574C15.7248 14 15.5976 14.0527 15.5039 14.1464C15.4101 14.2402 15.3574 14.3674 15.3574 14.5V17.5C15.3574 17.6326 15.4101 17.7598 15.5039 17.8536C15.5976 17.9473 15.7248 18 15.8574 18ZM15.8574 28H18.8574C18.99 28 19.1172 27.9473 19.211 27.8536C19.3047 27.7598 19.3574 27.6326 19.3574 27.5V24.5C19.3574 24.3674 19.3047 24.2402 19.211 24.1464C19.1172 24.0527 18.99 24 18.8574 24H15.8574C15.7248 24 15.5976 24.0527 15.5039 24.1464C15.4101 24.2402 15.3574 24.3674 15.3574 24.5V27.5C15.3574 27.6326 15.4101 27.7598 15.5039 27.8536C15.5976 27.9473 15.7248 28 15.8574 28Z" fill="#B0CCC2"/>
<g clip-path="url(#clip1_5691_85202)">
<path d="M16.3574 7H13.3574C13.2248 7 13.0976 7.05268 13.0039 7.14645C12.9101 7.24021 12.8574 7.36739 12.8574 7.5V10.5C12.8574 10.6326 12.9101 10.7598 13.0039 10.8536C13.0976 10.9473 13.2248 11 13.3574 11H16.3574C16.49 11 16.6172 10.9473 16.711 10.8536C16.8047 10.7598 16.8574 10.6326 16.8574 10.5V7.5C16.8574 7.36739 16.8047 7.24021 16.711 7.14645C16.6172 7.05268 16.49 7 16.3574 7ZM15.8574 10H13.8574V8H15.8574V10ZM16.3574 2H13.3574C13.2248 2 13.0976 2.05268 13.0039 2.14645C12.9101 2.24021 12.8574 2.36739 12.8574 2.5V5.5C12.8574 5.63261 12.9101 5.75979 13.0039 5.85355C13.0976 5.94732 13.2248 6 13.3574 6H16.3574C16.49 6 16.6172 5.94732 16.711 5.85355C16.8047 5.75979 16.8574 5.63261 16.8574 5.5V2.5C16.8574 2.36739 16.8047 2.24021 16.711 2.14645C16.6172 2.05268 16.49 2 16.3574 2ZM15.8574 5H13.8574V3H15.8574V5ZM11.3574 7H8.35742C8.22481 7 8.09764 7.05268 8.00387 7.14645C7.9101 7.24021 7.85742 7.36739 7.85742 7.5V10.5C7.85742 10.6326 7.9101 10.7598 8.00387 10.8536C8.09764 10.9473 8.22481 11 8.35742 11H11.3574C11.49 11 11.6172 10.9473 11.711 10.8536C11.8047 10.7598 11.8574 10.6326 11.8574 10.5V7.5C11.8574 7.36739 11.8047 7.24021 11.711 7.14645C11.6172 7.05268 11.49 7 11.3574 7ZM10.8574 10H8.85742V8H10.8574V10ZM11.3574 2H8.35742C8.22481 2 8.09764 2.05268 8.00387 2.14645C7.9101 2.24021 7.85742 2.36739 7.85742 2.5V5.5C7.85742 5.63261 7.9101 5.75979 8.00387 5.85355C8.09764 5.94732 8.22481 6 8.35742 6H11.3574C11.49 6 11.6172 5.94732 11.711 5.85355C11.8047 5.75979 11.8574 5.63261 11.8574 5.5V2.5C11.8574 2.36739 11.8047 2.24021 11.711 2.14645C11.6172 2.05268 11.49 2 11.3574 2ZM10.8574 5H8.85742V3H10.8574V5ZM11.3574 12H8.35742C8.22481 12 8.09764 12.0527 8.00387 12.1464C7.9101 12.2402 7.85742 12.3674 7.85742 12.5V15.5C7.85742 15.6326 7.9101 15.7598 8.00387 15.8536C8.09764 15.9473 8.22481 16 8.35742 16H11.3574C11.49 16 11.6172 15.9473 11.711 15.8536C11.8047 15.7598 11.8574 15.6326 11.8574 15.5V12.5C11.8574 12.3674 11.8047 12.2402 11.711 12.1464C11.6172 12.0527 11.49 12 11.3574 12ZM10.8574 15H8.85742V13H10.8574V15ZM11.3574 17H8.35742C8.22481 17 8.09764 17.0527 8.00387 17.1464C7.9101 17.2402 7.85742 17.3674 7.85742 17.5V20.5C7.85742 20.6326 7.9101 20.7598 8.00387 20.8536C8.09764 20.9473 8.22481 21 8.35742 21H11.3574C11.49 21 11.6172 20.9473 11.711 20.8536C11.8047 20.7598 11.8574 20.6326 11.8574 20.5V17.5C11.8574 17.3674 11.8047 17.2402 11.711 17.1464C11.6172 17.0527 11.49 17 11.3574 17ZM10.8574 20H8.85742V18H10.8574V20ZM20.8574 23H23.8574C23.99 23 24.1172 22.9473 24.211 22.8536C24.3047 22.7598 24.3574 22.6326 24.3574 22.5V19.5C24.3574 19.3674 24.3047 19.2402 24.211 19.1464C24.1172 19.0527 23.99 19 23.8574 19H20.8574C20.7248 19 20.5976 19.0527 20.5039 19.1464C20.4101 19.2402 20.3574 19.3674 20.3574 19.5V22.5C20.3574 22.6326 20.4101 22.7598 20.5039 22.8536C20.5976 22.9473 20.7248 23 20.8574 23ZM20.8574 18H23.8574C23.99 18 24.1172 17.9473 24.211 17.8536C24.3047 17.7598 24.3574 17.6326 24.3574 17.5V14.5C24.3574 14.3674 24.3047 14.2402 24.211 14.1464C24.1172 14.0527 23.99 14 23.8574 14H20.8574C20.7248 14 20.5976 14.0527 20.5039 14.1464C20.4101 14.2402 20.3574 14.3674 20.3574 14.5V17.5C20.3574 17.6326 20.4101 17.7598 20.5039 17.8536C20.5976 17.9473 20.7248 18 20.8574 18ZM20.8574 28H23.8574C23.99 28 24.1172 27.9473 24.211 27.8536C24.3047 27.7598 24.3574 27.6326 24.3574 27.5V24.5C24.3574 24.3674 24.3047 24.2402 24.211 24.1464C24.1172 24.0527 23.99 24 23.8574 24H20.8574C20.7248 24 20.5976 24.0527 20.5039 24.1464C20.4101 24.2402 20.3574 24.3674 20.3574 24.5V27.5C20.3574 27.6326 20.4101 27.7598 20.5039 27.8536C20.5976 27.9473 20.7248 28 20.8574 28ZM15.8574 23H18.8574C18.99 23 19.1172 22.9473 19.211 22.8536C19.3047 22.7598 19.3574 22.6326 19.3574 22.5V19.5C19.3574 19.3674 19.3047 19.2402 19.211 19.1464C19.1172 19.0527 18.99 19 18.8574 19H15.8574C15.7248 19 15.5976 19.0527 15.5039 19.1464C15.4101 19.2402 15.3574 19.3674 15.3574 19.5V22.5C15.3574 22.6326 15.4101 22.7598 15.5039 22.8536C15.5976 22.9473 15.7248 23 15.8574 23ZM15.8574 18H18.8574C18.99 18 19.1172 17.9473 19.211 17.8536C19.3047 17.7598 19.3574 17.6326 19.3574 17.5V14.5C19.3574 14.3674 19.3047 14.2402 19.211 14.1464C19.1172 14.0527 18.99 14 18.8574 14H15.8574C15.7248 14 15.5976 14.0527 15.5039 14.1464C15.4101 14.2402 15.3574 14.3674 15.3574 14.5V17.5C15.3574 17.6326 15.4101 17.7598 15.5039 17.8536C15.5976 17.9473 15.7248 18 15.8574 18ZM15.8574 28H18.8574C18.99 28 19.1172 27.9473 19.211 27.8536C19.3047 27.7598 19.3574 27.6326 19.3574 27.5V24.5C19.3574 24.3674 19.3047 24.2402 19.211 24.1464C19.1172 24.0527 18.99 24 18.8574 24H15.8574C15.7248 24 15.5976 24.0527 15.5039 24.1464C15.4101 24.2402 15.3574 24.3674 15.3574 24.5V27.5C15.3574 27.6326 15.4101 27.7598 15.5039 27.8536C15.5976 27.9473 15.7248 28 15.8574 28Z" fill="#D5E5E0"/>
</g>
</g>
<defs>
<clipPath id="clip0_5691_85202">
<rect width="30" height="30" fill="white" transform="translate(0.357422)"/>
</clipPath>
<clipPath id="clip1_5691_85202">
<rect width="10" height="16" fill="white" transform="translate(14.3574 12)"/>
</clipPath>
</defs>
</svg>
