<svg xmlns="http://www.w3.org/2000/svg" width="64" height="101" viewBox="0 0 64 101" fill="none">
  <path
    d="M14.0957 15.2839L39.1449 3.34766L61 34.1129L58.8145 49.0752L46.0377 52.6753L28.3855 57.6491L25.5296 72.6114L20.6522 98.165L3 95.3071L7.42894 63.365L9.52685 48.2346L14.0957 15.2839Z"
    fill="white"
  />
  <path
    d="M14.0957 15.2839L39.1449 3.34766M14.0957 15.2839L46.0377 52.6753M14.0957 15.2839L61 34.1129M14.0957 15.2839L9.52685 48.2346M39.1449 3.34766L61 34.1129M39.1449 3.34766C35.7826 21.385 28.9235 57.4975 28.3855 57.6491M39.1449 3.34766L46.0377 52.6753M61 34.1129L58.8145 49.0752L46.0377 52.6753M28.3855 57.6491L25.5296 72.6114M28.3855 57.6491L7.42894 63.365M28.3855 57.6491L46.0377 52.6753M28.3855 57.6491L9.52685 48.2346M25.5296 72.6114L20.6522 98.165L3 95.3071L7.42894 63.365M25.5296 72.6114C25.6624 71.9156 13.5178 66.1572 7.42894 63.365M7.42894 63.365L9.52685 48.2346"
    stroke="white"
    stroke-width="4.46154"
  />
  <path
    d="M14.0957 15.2839L39.1449 3.34766M14.0957 15.2839L46.0377 52.6753M14.0957 15.2839L61 34.1129M14.0957 15.2839L9.52685 48.2346M39.1449 3.34766L61 34.1129M39.1449 3.34766C35.7826 21.385 28.9235 57.4975 28.3855 57.6491M39.1449 3.34766L46.0377 52.6753M61 34.1129L58.8145 49.0752L46.0377 52.6753M28.3855 57.6491L25.5296 72.6114M28.3855 57.6491L7.42894 63.3651M28.3855 57.6491L46.0377 52.6753M28.3855 57.6491L9.52685 48.2346M25.5296 72.6114L20.6522 98.165L3 95.3071L7.42894 63.3651M25.5296 72.6114C25.6624 71.9156 13.5178 66.1572 7.42894 63.3651M7.42894 63.3651L9.52685 48.2346"
    stroke="#01C1C0"
    stroke-width="1.85897"
  />
</svg>