<svg
        class="major-item-update-icon"
        xmlns="http://www.w3.org/2000/svg"
        width="37"
        height="37"
        viewBox="0 0 37 37"
        fill="none"
      >
        <g clip-path="url(#clip0_3850_15783)">
          <path
            d="M22.2374 33.7004C21.9313 33.7768 21.6228 33.8436 21.3125 33.9009C20.5054 34.0509 19.9718 34.8272 20.1211 35.6351C20.1916 36.0171 20.4091 36.3563 20.727 36.5796C20.8889 36.694 21.0721 36.7747 21.2657 36.8171C21.4594 36.8594 21.6595 36.8625 21.8544 36.8261C22.224 36.7575 22.5915 36.6778 22.9563 36.5869C23.7533 36.3885 24.2389 35.5811 24.04 34.7844C23.8417 33.9871 23.0349 33.5019 22.2374 33.7004ZM33.2369 13.7635C33.3367 14.0656 33.531 14.3277 33.7913 14.5109C34.1638 14.7733 34.6513 14.8616 35.1165 14.7078C35.8964 14.4488 36.319 13.6078 36.061 12.8283C35.9428 12.4714 35.8137 12.1183 35.674 11.7693C35.3689 11.0066 34.5037 10.6352 33.7406 10.9403C32.9782 11.2453 32.6067 12.1107 32.9121 12.8737C33.0294 13.1669 33.1377 13.4636 33.2369 13.7635ZM27.0707 31.5767C26.8072 31.7509 26.5384 31.9169 26.2647 32.0747C25.553 32.4853 25.3092 33.3951 25.7196 34.1065C25.8271 34.2935 25.9741 34.4548 26.1503 34.5791C26.6092 34.902 27.2323 34.9503 27.7512 34.6514C28.0769 34.4636 28.3968 34.266 28.7105 34.0587C29.3956 33.6061 29.5842 32.6832 29.1313 31.9978C28.6785 31.3121 27.7561 31.1238 27.0707 31.5767ZM36.9858 17.9178C36.9534 17.0968 36.262 16.4578 35.4407 16.4899C34.6206 16.5222 33.9811 17.214 34.0133 18.0346C34.0256 18.3484 34.0288 18.6668 34.0216 18.9803C34.0101 19.4951 34.2619 19.954 34.6532 20.2299C34.8944 20.3999 35.1809 20.4941 35.476 20.5004C36.2969 20.5186 36.9773 19.8674 36.9955 19.0461C37.0037 18.6715 37.0006 18.2921 36.9858 17.9178ZM32.9941 27.6638C32.3358 27.1699 31.4045 27.304 30.9114 27.9611C30.7219 28.2136 30.5247 28.4602 30.3202 28.7007C29.7881 29.3258 29.8632 30.2648 30.4884 30.7973C30.524 30.8275 30.56 30.8553 30.5974 30.8814C31.2189 31.3195 32.0827 31.2188 32.5852 30.6292C32.8294 30.3421 33.0648 30.0476 33.291 29.7462C33.7841 29.089 33.6506 28.157 32.9941 27.6638ZM35.1806 22.287C34.3968 22.0412 33.562 22.4775 33.3164 23.2614C33.2219 23.5628 33.1183 23.8612 33.0058 24.1564C32.7588 24.8051 32.9954 25.5188 33.5379 25.9013C33.6395 25.9729 33.7498 26.0314 33.866 26.0755C34.6335 26.3684 35.4928 25.9833 35.7854 25.2156C35.919 24.8645 36.0422 24.5096 36.1549 24.1512C36.4003 23.3672 35.9643 22.5327 35.1806 22.287ZM15.748 33.9142C14.4288 33.6783 13.1462 33.2706 11.9328 32.7018C11.9185 32.6943 11.9057 32.6858 11.8906 32.679C11.6047 32.5445 11.3228 32.4018 11.0452 32.2509C11.0442 32.2498 11.0425 32.2491 11.041 32.2484C10.5311 31.9675 10.0371 31.6588 9.56111 31.3236C2.5642 26.3948 0.881861 16.6924 5.811 9.69553C6.88283 8.17465 8.1799 6.90581 9.62593 5.90016C9.64375 5.88776 9.66156 5.87543 9.67922 5.86294C14.7748 2.35192 21.6939 2.1153 27.1046 5.7232L25.9425 7.40227C25.6194 7.86963 25.8182 8.2102 26.3838 8.1593L31.4317 7.70737C31.998 7.65647 32.3366 7.16661 32.1843 6.61972L30.8288 1.73576C30.677 1.18823 30.2885 1.12269 29.9651 1.58997L28.8003 3.27302C24.8296 0.607542 20.0671 -0.408845 15.34 0.41085C14.8668 0.492953 14.397 0.593242 13.9315 0.711495C13.9279 0.712131 13.9251 0.712529 13.9222 0.713165C13.9043 0.717539 13.8862 0.723346 13.8688 0.728197C9.79256 1.77497 6.23612 4.15237 3.69838 7.5444C3.67698 7.56978 3.65495 7.59459 3.63475 7.62219C3.54997 7.73658 3.46658 7.85199 3.38461 7.96841C3.24998 8.15962 3.11904 8.35341 2.99186 8.54966C2.97604 8.5732 2.96395 8.59714 2.95011 8.62092C0.855933 11.8661 -0.15417 15.6178 0.0190584 19.4372C0.0194561 19.4498 0.0187403 19.4624 0.0190584 19.4753C0.0362461 19.8507 0.065105 20.2255 0.105593 20.5991C0.107741 20.6231 0.11307 20.6458 0.117126 20.6699C0.158481 21.0464 0.211477 21.4216 0.276038 21.7949C0.939684 25.6236 2.74578 29.0688 5.45214 31.7496C5.45842 31.7559 5.46495 31.7627 5.47131 31.7692C5.47354 31.7717 5.476 31.773 5.47815 31.7753C6.2122 32.4994 7.00475 33.1618 7.84775 33.7555C10.0763 35.3259 12.5579 36.3639 15.223 36.8422C16.0317 36.9875 16.8041 36.4492 16.9492 35.6409C17.0942 34.8321 16.5564 34.0591 15.748 33.9142Z"
            fill="white"
          />
          <path
            d="M17.5867 6.61719C16.9216 6.61719 16.3828 7.15644 16.3828 7.82064V19.8104L27.3484 25.479C27.5188 25.5674 27.7079 25.6135 27.8998 25.6134C28.3354 25.6134 28.756 25.3762 28.9699 24.9624C29.2749 24.3718 29.0441 23.6462 28.4535 23.3412L18.7893 18.3449V7.82064C18.7892 7.15644 18.2511 6.61719 17.5867 6.61719Z"
            fill="white"
          />
        </g>
        <defs>
          <clipPath id="clip0_3850_15783">
            <rect width="37" height="37" fill="white" />
          </clipPath>
        </defs>
      </svg>