<svg xmlns="http://www.w3.org/2000/svg" width="31" height="30" viewBox="0 0 31 30" fill="none">
  <path d="M18.9777 26.0078H26.8479L27.5833 27.4676H18.2207L18.9777 26.0078Z" fill="#D5E5E0"/>
  <path d="M28.3574 9.67776V7.46329H27.8337L26.0057 3.06257V2H19.736V2.90741L6.97846 7.46329H2.35742V9.67776H6.72147V13.8857C6.19778 14.0221 5.81471 14.4781 5.81471 15.0282C5.81471 15.5783 6.20263 16.0344 6.72147 16.1707V17.3132H7.03665C7.28879 17.3132 7.4973 17.5107 7.4973 17.7552C7.4973 17.9996 7.28879 18.1971 7.03665 18.1971C6.7845 18.1971 6.58085 17.9949 6.58085 17.7552H5.95048C5.95048 18.1266 6.14929 18.451 6.44992 18.6391L4.87887 20.1624H3.83635V24.6995H10.2321V20.1624H9.18957L7.61852 18.6438C7.91915 18.4557 8.12281 18.1313 8.12281 17.7599C8.12281 17.285 7.79308 16.8807 7.34698 16.749V16.1707C7.87066 16.0344 8.25858 15.5783 8.25858 15.0282C8.25858 14.4781 7.87066 14.0221 7.34698 13.8857V9.67776H19.736V25.4564H18.582L17.4764 28H28.2604L27.1549 25.4564H26.0008V9.67776H28.3526H28.3574ZM9.60173 24.0882H4.46671V20.7736H9.60173V24.0882ZM5.77107 20.1624L7.03665 18.9353L8.30222 20.1624H5.77592H5.77107ZM7.63307 15.0235C7.63307 15.3432 7.36637 15.6018 7.03665 15.6018C6.70692 15.6018 6.44023 15.3432 6.44023 15.0235C6.44023 14.7038 6.70692 14.4452 7.03665 14.4452C7.36637 14.4452 7.63307 14.7038 7.63307 15.0235ZM22.4272 12.0991L20.3712 14.0926V10.1056L22.4272 12.0991ZM20.8173 9.67306H24.9341L22.8781 11.6665L20.8222 9.67306H20.8173ZM22.8733 12.5316L25.2444 14.8307L22.8733 17.1298L20.5021 14.8307L22.8733 12.5316ZM20.3712 15.5689L22.4272 17.5624L20.3712 19.5559V15.5689ZM22.8733 17.9949L25.2444 20.294L22.8733 22.5931L20.5021 20.294L22.8733 17.9949ZM22.4272 23.0257L20.3712 25.0192V21.0322L22.4272 23.0257ZM22.8733 23.4582L24.9292 25.4517H20.8125L22.8684 23.4582H22.8733ZM23.3194 23.0257L25.3753 21.0322V25.0192L23.3194 23.0257ZM25.3753 19.5559L23.3194 17.5624L25.3753 15.5689V19.5559ZM23.3194 12.0991L25.3753 10.1056V14.0926L23.3194 12.0991ZM27.1597 7.45859H26.0105V4.68933L27.1597 7.45859ZM20.3712 3.03906L22.4272 5.03255L20.3712 7.02604V3.04376V3.03906ZM25.3802 7.02604L23.3242 5.03255L25.3802 3.03906V7.02604ZM22.8781 4.6L20.8222 2.60651H24.9389L22.883 4.6H22.8781ZM22.8781 5.4651L24.9341 7.45859H20.8173L22.8733 5.4651H22.8781ZM19.7457 3.55624V7.46329H8.80651L19.736 3.55624H19.7457ZM2.98778 8.0745H27.7271V9.06655H2.98778V8.0745ZM26.7427 26.0676L27.3149 27.3888H18.4268L18.999 26.0676H26.7379H26.7427Z" fill="#015121"/>
  <rect x="7.35742" y="9.67969" width="12.3867" height="1.53906" fill="#B0CCC2"/>
  <rect x="3.84766" y="20.145" width="6.39551" height="4.55908" fill="#B0CCC2"/>
</svg>