<svg xmlns="http://www.w3.org/2000/svg" width="79" height="95" viewBox="0 0 79 95" fill="none">
  <path
    d="M66.7628 92.6582H26.2106L3.08312 48.4626L26.2106 2.84131H66.7628L75 20.4245H44.5858V32.7803L44.5858 63.8281V74.9166H75L66.7628 92.6582Z"
    fill="white"
  />
  <path
    d="M26.2106 92.6582H66.7628L75 74.9166H44.5858M26.2106 92.6582L3.08312 48.4626M26.2106 92.6582L44.5858 74.9166M3.08312 48.4626L26.2106 2.84131M3.08312 48.4626L44.5858 20.4245M3.08312 48.4626L44.5858 74.9166M3.08312 48.4626L44.5858 63.8281M3.08312 48.4626L44.5858 32.7803M26.2106 2.84131H66.7628L75 20.4245H44.5858M26.2106 2.84131L44.5858 20.4245M44.5858 20.4245V32.7803M44.5858 74.9166V63.8281M44.5858 63.8281L44.5858 32.7803"
    stroke="white"
    stroke-width="4.58639"
  />
  <path
    d="M26.2106 92.6582H66.7628L75 74.9166H44.5858M26.2106 92.6582L3.08312 48.4626M26.2106 92.6582L44.5858 74.9166M3.08312 48.4626L26.2106 2.84131M3.08312 48.4626L44.5858 20.4245M3.08312 48.4626L44.5858 74.9166M3.08312 48.4626L44.5858 63.8281M3.08312 48.4626L44.5858 32.7803M26.2106 2.84131H66.7628L75 20.4245H44.5858M26.2106 2.84131L44.5858 20.4245M44.5858 20.4245V32.7803M44.5858 74.9166V63.8281M44.5858 63.8281L44.5858 32.7803"
    stroke="#828282"
    stroke-width="1.911"
  />
</svg>