<svg xmlns="http://www.w3.org/2000/svg" width="87" height="89" viewBox="0 0 87 89" fill="none">
  <path
    d="M82 2.85742L60.3232 31.7599L82 61.8372L40.6549 85.844C27.8117 77.8417 2.30326 61.8372 3.01457 61.8372C3.46382 61.8372 18.6751 53.8769 34.5514 45.4975L32.7638 33.681L29.2443 10.4151L43.471 8.37703L82 2.85742Z"
    fill="white"
  />
  <path
    d="M82 2.85742L60.216 31.9027M82 2.85742L43.471 8.37703M82 2.85742L32.7638 33.681M60.216 31.9027L40.6549 85.844M60.216 31.9027C41.4453 41.8809 3.72588 61.8372 3.01457 61.8372M60.216 31.9027L37.0232 61.8372M40.6549 85.844C27.8117 77.8417 2.30326 61.8372 3.01457 61.8372M40.6549 85.844L82 61.8372M40.6549 85.844L37.0232 61.8372M3.01457 61.8372H82M82 61.8372L43.471 8.37703M43.471 8.37703L29.2443 10.4151L32.7638 33.681M32.7638 33.681L37.0232 61.8372"
    stroke="white"
    stroke-width="4.19469"
  />
  <path
    d="M82 2.85742L60.216 31.9027M82 2.85742L43.471 8.37703M82 2.85742L32.7638 33.681M60.216 31.9027L40.6549 85.844M60.216 31.9027C41.4453 41.8809 3.72588 61.8372 3.01457 61.8372M60.216 31.9027L37.0232 61.8372M40.6549 85.844C27.8117 77.8417 2.30326 61.8372 3.01457 61.8372M40.6549 85.844L82 61.8372M40.6549 85.844L37.0232 61.8372M3.01457 61.8372H82M82 61.8372L43.471 8.37703M43.471 8.37703L29.2443 10.4151L32.7638 33.681M32.7638 33.681L37.0232 61.8372"
    stroke="#0C9675"
    stroke-width="1.74779"
  />
</svg>