<svg xmlns="http://www.w3.org/2000/svg" width="96" height="85" viewBox="0 0 96 85" fill="none">
  <path
    d="M34.028 2.6543H89L52.6558 30.0015L67.3229 51.534L60.8056 71.6526L10.5091 82.562L3 57.2012L31.1944 46.1502L31.2184 46.0537L15.6096 32.5489L27.3939 13.422L34.028 2.6543Z"
    fill="white"
  />
  <path
    d="M34.028 2.6543H89M34.028 2.6543L27.3939 13.422M34.028 2.6543L39.8764 11.2403M89 2.6543L31.1944 46.1502M89 2.6543L39.8764 11.2403M31.1944 46.1502L3 57.2012M31.1944 46.1502L39.8764 11.2403M3 57.2012L10.5091 82.562L60.8056 71.6526M3 57.2012L67.3229 51.534M60.8056 71.6526L67.3229 51.534M60.8056 71.6526L15.6096 32.5489L27.3939 13.422M67.3229 51.534L39.8764 11.2403M27.3939 13.422L39.8764 11.2403"
    stroke="white"
    stroke-width="4.16129"
  />
  <path
    d="M34.028 2.6543H89M34.028 2.6543L27.3939 13.422M34.028 2.6543L39.8764 11.2403M89 2.6543L31.1944 46.1502M89 2.6543L39.8764 11.2403M31.1944 46.1502L3 57.2012M31.1944 46.1502L39.8764 11.2403M3 57.2012L10.5091 82.562L60.8056 71.6526M3 57.2012L67.3229 51.534M60.8056 71.6526L67.3229 51.534M60.8056 71.6526L15.6096 32.5489L27.3939 13.422M67.3229 51.534L39.8764 11.2403M27.3939 13.422L39.8764 11.2403"
    stroke="#CA653C"
    stroke-width="1.73387"
  />
</svg>