<svg xmlns="http://www.w3.org/2000/svg" width="84" height="95" viewBox="0 0 84 95" fill="none">
  <path
    d="M81 77.8105L70.1492 91.0202L57.5685 91.9637L54.9836 77.8105H25.3591L22.1855 91.9637L13.2218 91.0202L3 77.8105L9.51721 65.5444L41.6855 5L63.3871 45.1914L81 77.8105Z"
    fill="white"
  />
  <path
    d="M3 77.8105L13.2218 91.0202M3 77.8105L9.51721 65.5444M3 77.8105H81M41.6855 5L57.5685 91.9637L70.1492 91.0202M41.6855 5L22.1855 91.9637L13.2218 91.0202M41.6855 5L9.51721 65.5444M41.6855 5L63.3871 45.1914M81 77.8105L70.1492 91.0202M81 77.8105L63.3871 45.1914M70.1492 91.0202L63.3871 45.1914M13.2218 91.0202L9.6243 66.2808M9.51721 65.5444L9.6243 66.2808M9.6243 66.2808L63.3871 45.1914"
    stroke="white"
    stroke-width="4.33333"
  />
  <path
    d="M3 77.8105L13.2218 91.0202M3 77.8105L9.51721 65.5444M3 77.8105H81M41.6855 5L57.5685 91.9637L70.1492 91.0202M41.6855 5L22.1855 91.9637L13.2218 91.0202M41.6855 5L9.51721 65.5444M41.6855 5L63.3871 45.1914M81 77.8105L70.1492 91.0202M81 77.8105L63.3871 45.1914M70.1492 91.0202L63.3871 45.1914M13.2218 91.0202L9.6243 66.2808M9.51721 65.5444L9.6243 66.2808M9.6243 66.2808L63.3871 45.1914"
    stroke="#F04145"
    stroke-width="1.80556"
  />
</svg>