<svg xmlns="http://www.w3.org/2000/svg" width="62" height="94" viewBox="0 0 62 94" fill="none">
  <path
    d="M59.1544 2.60645V26.2416H42.5595V26.4092V67.9803H59.1544V91.6154H18.9244H18.7568H3V66.9745H18.7568V26.2416H3L7.52588 2.60645H18.7568H59.1544Z"
    fill="white"
  />
  <path
    d="M42.5595 67.9803H59.1544V91.6154H18.9244M42.5595 67.9803L18.9244 91.6154M42.5595 67.9803V26.4092M18.7568 2.60645H7.52588L3 26.2416H18.7568V66.9745H3V91.6154H18.7568M18.7568 2.60645H59.1544V26.2416H42.5595V26.4092M18.7568 2.60645V91.6154M18.7568 2.60645L42.5595 26.4092M18.7568 91.6154H18.9244"
    stroke="white"
    stroke-width="4.44227"
  />
  <path
    d="M59.1544 2.60645V26.2416H42.5595V26.4092M59.1544 2.60645H18.7568M59.1544 2.60645L18.7568 26.2416M42.5595 67.9803H59.1544V91.6154M42.5595 67.9803L18.9244 91.6154M42.5595 67.9803V26.4092M59.1544 91.6154H18.9244M59.1544 91.6154L18.7568 66.9745M18.7568 66.9745H3V91.6154H18.7568M18.7568 66.9745V26.2416M18.7568 26.2416H3L7.52588 2.60645H18.7568M18.7568 2.60645V91.6154M18.7568 2.60645L42.5595 26.4092M18.7568 91.6154H18.9244"
    stroke="#FF6B00"
    stroke-width="1.85095"
  />
</svg>