<svg xmlns="http://www.w3.org/2000/svg" width="170" height="170" viewBox="0 0 170 170" fill="none">
  <path d="M85 170C131.944 170 170 131.944 170 85C170 38.0558 131.944 0 85 0C38.0558 0 0 38.0558 0 85C0 131.944 38.0558 170 85 170Z" fill="#EFF0F6"/>
  <path d="M106.786 111.618L104.003 114.106C103.081 114.917 101.681 114.843 100.87 113.922L93.7188 105.904C92.9079 104.983 92.9816 103.582 93.9031 102.771L96.6861 100.283C97.6076 99.4724 99.0083 99.5461 99.8192 100.468L106.97 108.485C107.781 109.406 107.689 110.807 106.786 111.618Z" fill="#D3D9DD"/>
  <path d="M133.323 139.184L128.992 143.055C127.407 144.474 124.974 144.326 123.555 142.741L100.941 117.437C99.5217 115.852 99.6692 113.419 101.254 112L105.585 108.129C107.17 106.71 109.603 106.858 111.022 108.443L133.636 133.747C135.037 135.351 134.889 137.784 133.323 139.184Z" fill="#BFC6CC"/>
  <path d="M122.322 126.266C121.751 126.782 120.866 126.727 120.35 126.156L110.121 114.692C109.605 114.121 109.661 113.236 110.232 112.72C110.803 112.204 111.688 112.259 112.204 112.831L122.433 124.294C122.949 124.866 122.894 125.75 122.322 126.266Z" fill="white"/>
  <path d="M73.6308 112.459C94.833 112.459 112.021 95.271 112.021 74.0688C112.021 52.8665 94.833 35.6787 73.6308 35.6787C52.4285 35.6787 35.2407 52.8665 35.2407 74.0688C35.2407 95.271 52.4285 112.459 73.6308 112.459Z" fill="#BFC6CC"/>
  <path d="M73.6283 106.971C91.7973 106.971 106.526 92.2422 106.526 74.0732C106.526 55.9042 91.7973 41.1753 73.6283 41.1753C55.4593 41.1753 40.7305 55.9042 40.7305 74.0732C40.7305 92.2422 55.4593 106.971 73.6283 106.971Z" fill="#D3D9DD"/>
  <path opacity="0.23" d="M121.473 78.4932H114.304L104.462 84.8516V78.4932H73.2782C69.8871 78.4932 67.1226 75.7471 67.1226 72.3376V41.725C67.1226 38.3339 69.8686 35.5693 73.2782 35.5693H121.473C124.864 35.5693 127.629 38.3154 127.629 41.725V72.3376C127.629 75.7287 124.883 78.4932 121.473 78.4932Z" fill="#92989B"/>
  <path d="M120.072 76.7071H112.902L103.061 83.0655V76.7071H71.8769C68.4857 76.7071 65.7212 73.961 65.7212 70.5514V39.9389C65.7212 36.5477 68.4673 33.7832 71.8769 33.7832H120.072C123.463 33.7832 126.227 36.5293 126.227 39.9389V70.5514C126.227 73.961 123.481 76.7071 120.072 76.7071Z" fill="white"/>
  <path d="M96.9048 71.2901C106.005 71.2901 113.381 63.9133 113.381 54.8135C113.381 45.7137 106.005 38.3369 96.9048 38.3369C87.805 38.3369 80.4282 45.7137 80.4282 54.8135C80.4282 63.9133 87.805 71.2901 96.9048 71.2901Z" fill="#E4E8EA"/>
  <path d="M89.9414 45.2354L87.335 47.8418L103.807 64.3142L106.414 61.7078L89.9414 45.2354Z" fill="#D2D6D9"/>
  <path d="M103.828 45.2825L87.3555 61.7549L89.9619 64.3613L106.434 47.8889L103.828 45.2825Z" fill="#D2D6D9"/>
</svg>