<svg xmlns="http://www.w3.org/2000/svg" width="21" height="26" viewBox="0 0 21 26" fill="none">
  <path d="M3.54713 3.98657L9.68808 1.02197M3.54713 3.98657L11.8424 13.1006M3.54713 3.98657L2.37339 12.2027M3.54713 3.98657L14.982 8.72993M9.68808 1.02197L14.982 8.72993M9.68808 1.02197L11.8424 13.1006M9.68808 1.02197L6.86581 14.6268M14.982 8.72993L14.7703 12.2027L11.8424 13.1006M11.8424 13.1006L19.8524 21.9012L18.3701 24.4846C18.3701 24.4846 2.22601 16.1226 2.06483 16.0991C1.90365 16.0755 6.86581 14.6268 6.86581 14.6268M11.8424 13.1006L6.86581 14.6268M2.37339 12.2027L0.667236 24.1458L4.73297 24.9082L6.86581 14.6268M2.37339 12.2027L6.86581 14.6268" stroke="#0382D8" stroke-width="0.487118"/>
</svg>