<svg xmlns="http://www.w3.org/2000/svg" width="24" height="22" viewBox="0 0 24 22" fill="none">
  <path d="M0.59375 15.0744V0.666992H5.43315M0.59375 15.0744L12.0827 21.3915M0.59375 15.0744L5.43315 9.08977M12.0827 21.3915L23.5347 15.0744M12.0827 21.3915L5.43315 12.9317M12.0827 21.3915L19.1756 12.9317M12.0827 21.3915C12.0827 20.6231 10.2356 15.4315 9.31206 12.9317M12.0827 21.3915L14.9642 12.9317M23.5347 15.0744V0.666992H19.1756M23.5347 15.0744L19.1756 9.6439M19.1756 0.666992V9.6439M19.1756 0.666992L14.9642 12.9317M19.1756 12.9317V9.6439M19.1756 12.9317H14.9642M5.43315 12.9317V9.08977M5.43315 12.9317H9.31206M5.43315 0.666992V9.08977M5.43315 0.666992L9.31206 12.9317M5.43315 9.08977L9.31206 12.9317M19.1756 9.6439L14.9642 12.9317M9.31206 12.9317H14.9642" stroke="#84775F" stroke-width="0.44283"/>
</svg>