<svg xmlns="http://www.w3.org/2000/svg" width="22" height="22" viewBox="0 0 22 22" fill="none">
  <path d="M2.67054 3.66797C1.70226 3.66797 0.916992 4.436 0.916992 5.38376C0.916992 6.33084 1.70226 7.09822 2.67054 7.09822C3.63882 7.09822 4.42409 6.33084 4.42409 5.38376C4.42409 4.436 3.63882 3.66797 2.67054 3.66797ZM2.67054 8.82816C1.70226 8.82816 0.916992 9.59555 0.916992 10.5433C0.916992 11.4904 1.70226 12.2584 2.67054 12.2584C3.63882 12.2584 4.42409 11.4904 4.42409 10.5433C4.42409 9.59555 3.63882 8.82816 2.67054 8.82816ZM2.67054 13.9877C1.70226 13.9877 0.916992 14.7557 0.916992 15.7028C0.916992 16.6499 1.70226 17.418 2.67054 17.418C3.63882 17.418 4.42409 16.6499 4.42409 15.7028C4.42409 14.7557 3.63882 13.9877 2.67054 13.9877ZM19.765 4.09338H7.2915C6.56335 4.09338 5.97288 4.67091 5.97288 5.38376C5.97288 6.09601 6.5633 6.6735 7.2915 6.6735H19.765C20.4932 6.6735 21.0837 6.09601 21.0837 5.38376C21.0837 4.67091 20.4932 4.09338 19.765 4.09338ZM19.765 9.25293H7.2915C6.56335 9.25293 5.97288 9.83042 5.97288 10.5433C5.97288 11.2556 6.5633 11.833 7.2915 11.833H19.765C20.4932 11.833 21.0837 11.2556 21.0837 10.5433C21.0837 9.83042 20.4932 9.25293 19.765 9.25293ZM19.765 14.4131H7.2915C6.56335 14.4131 5.97288 14.9906 5.97288 15.7028C5.97288 16.415 6.5633 16.9925 7.2915 16.9925H19.765C20.4932 16.9925 21.0837 16.415 21.0837 15.7028C21.0837 14.9905 20.4932 14.4131 19.765 14.4131Z" fill="white"/>
</svg>