<svg xmlns="http://www.w3.org/2000/svg" width="17" height="26" viewBox="0 0 17 26" fill="none">
  <path d="M3.61786 3.65024L10.1121 0.555664M3.61786 3.65024L11.8991 13.3443M3.61786 3.65024L15.7782 8.53183M3.61786 3.65024L2.43336 12.193M10.1121 0.555664L15.7782 8.53183M10.1121 0.555664C9.24041 5.23201 7.46211 14.5945 7.32264 14.6338M10.1121 0.555664L11.8991 13.3443M15.7782 8.53183L15.2116 12.411L11.8991 13.3443M7.32264 14.6338L6.58223 18.5129M7.32264 14.6338L1.88945 16.1157M7.32264 14.6338L11.8991 13.3443M7.32264 14.6338L2.43336 12.193M6.58223 18.5129L5.3177 25.138L0.741211 24.397L1.88945 16.1157M6.58223 18.5129C6.61666 18.3325 3.46806 16.8396 1.88945 16.1157M1.88945 16.1157L2.43336 12.193" stroke="#01C1C0" stroke-width="0.481956"/>
</svg>