<svg xmlns="http://www.w3.org/2000/svg" width="24" height="24" viewBox="0 0 24 24" fill="none">
  <path d="M22.6049 1.11084L16.685 9.00407M22.6049 1.11084L12.1345 2.61082M22.6049 1.11084L9.22473 9.48732M16.685 9.00407L11.3692 23.6629M16.685 9.00407C11.5839 11.7157 1.33349 17.1389 1.14019 17.1389M16.685 9.00407L10.3822 17.1389M11.3692 23.6629C7.87896 21.4883 0.946887 17.1389 1.14019 17.1389M11.3692 23.6629L22.6049 17.1389M11.3692 23.6629L10.3822 17.1389M1.14019 17.1389H22.6049M22.6049 17.1389L12.1345 2.61082M12.1345 2.61082L8.26826 3.16469L9.22473 9.48732M9.22473 9.48732L10.3822 17.1389" stroke="#0C9675" stroke-width="0.474971"/>
</svg>